<?xml version="1.0" standalone="no"?>
<!DOCTYPE svg PUBLIC "-//W3C//DTD SVG 20010904//EN"
 "http://www.w3.org/TR/2001/REC-SVG-20010904/DTD/svg10.dtd">
<svg version="1.0" xmlns="http://www.w3.org/2000/svg"
 width="173.000000pt" height="173.000000pt" viewBox="0 0 173.000000 173.000000"
 preserveAspectRatio="xMidYMid meet">
<metadata>
Created by potrace 1.11, written by Peter Selinger 2001-2013
</metadata>
<g transform="translate(0.000000,173.000000) scale(0.100000,-0.100000)"
fill="#000000" stroke="none">
<path d="M28 1300 c-26 -26 -30 -36 -25 -66 3 -19 15 -48 27 -64 20 -28 20
-33 7 -53 -31 -48 -22 -92 29 -148 23 -24 24 -28 10 -53 -22 -42 -11 -85 31
-129 90 -92 253 -171 381 -184 l53 -6 -64 64 c-69 69 -93 108 -113 182 -19 73
-5 176 33 234 16 24 10 43 -12 43 -32 0 -125 66 -191 135 -84 89 -114 97 -166
45z"/>
<path d="M1569 1306 c-13 -13 -46 -47 -74 -75 -31 -33 -77 -66 -121 -88 l-72
-35 26 -50 c46 -88 36 -227 -21 -313 -11 -16 -45 -56 -76 -89 l-56 -58 56 6
c140 17 275 83 372 182 51 53 61 93 32 138 -14 21 -13 24 11 47 53 49 64 110
28 150 -12 13 -11 20 11 49 27 37 33 94 12 121 -33 43 -92 50 -128 15z"/>
<path d="M582 1150 c-121 -55 -178 -182 -140 -314 9 -33 48 -78 202 -233 133
-136 196 -193 212 -193 16 0 76 54 199 178 98 97 184 187 192 199 21 32 40
112 37 155 -10 119 -111 217 -230 224 -69 4 -111 -7 -163 -42 l-34 -23 -28 20
c-70 49 -174 62 -247 29z"/>
</g>
</svg>
